<mxfile host="app.diagrams.net" modified="2023-11-16T07:02:29.545Z" agent="Mozilla/5.0 (Windows NT 10.0; Win64; x64) AppleWebKit/537.36 (KHTML, like Gecko) Chrome/119.0.0.0 Safari/537.36" version="22.1.2" etag="dtV-CNxEiaXn8Z3O9eyA" type="github">
  <diagram name="페이지-1" id="iN99s6kmqi3qtxOU3iqi">
    <mxGraphModel>
      <root>
        <mxCell id="0" />
        <mxCell id="1" parent="0" />
      </root>
    </mxGraphModel>
  </diagram>
</mxfile>
